<?xml version="1.0" standalone="no"?><!DOCTYPE svg PUBLIC "-//W3C//DTD SVG 1.1//EN" "http://www.w3.org/Graphics/SVG/1.1/DTD/svg11.dtd"><svg class="icon" height="512" viewBox="0 0 1024 1024" version="1.1" xmlns="http://www.w3.org/2000/svg"><path d="M81.92 809.984a430.08 72.704 0 1 0 860.16 0 430.08 72.704 0 1 0-860.16 0Z" fill="#F1F2F4" /><path d="M716.8 335.872V788.48c0 17.408-13.312 30.72-30.72 30.72H256c-17.408 0-30.72-13.312-30.72-30.72V256c0-16.384 13.312-30.72 30.72-30.72h350.208L716.8 335.872z" fill="#FFFFFF" /><path d="M59.392 563.2c6.144 26.624 31.744 40.96 31.744 40.96s-25.6 14.336-31.744 36.864c-10.24-21.504-31.744-36.864-31.744-36.864s24.576-14.336 31.744-40.96zM817.152 221.184c6.144-26.624 31.744-40.96 31.744-40.96s-25.6-14.336-31.744-36.864c-10.24 21.504-31.744 36.864-31.744 36.864s24.576 13.312 31.744 40.96z" fill="#D8D8D8" /><path d="M893.952 177.152c8.192 39.936 47.104 60.416 47.104 60.416s-37.888 20.48-47.104 53.248c-15.36-31.744-47.104-53.248-47.104-53.248s36.864-20.48 47.104-60.416z" fill="#85898B" /><path d="M729.088 489.472c6.144 0 10.24-4.096 10.24-10.24V331.776c0-3.072-1.024-5.12-3.072-7.168L619.52 207.872c-2.048-2.048-4.096-3.072-7.168-3.072H256c-28.672 0-51.2 22.528-51.2 51.2v532.48c0 28.672 22.528 51.2 51.2 51.2h432.128c28.672 0 51.2-22.528 51.2-51.2 0-7.168-4.096-12.288-10.24-12.288s-10.24 4.096-10.24 10.24c0 18.432-13.312 32.768-30.72 32.768H256c-17.408 0-30.72-13.312-30.72-30.72V256c0-16.384 14.336-30.72 30.72-30.72H602.112h-6.144v71.68c0 28.672 23.552 51.2 51.2 51.2h71.68v131.072c0 6.144 5.12 10.24 10.24 10.24z" fill="#7E898F" /><path d="M328.704 409.6h144.384c6.144 0 10.24-4.096 10.24-10.24s-4.096-10.24-10.24-10.24H328.704c-6.144 0-10.24 4.096-10.24 10.24s4.096 10.24 10.24 10.24zM328.704 552.96c-6.144 0-10.24 4.096-10.24 10.24s4.096 10.24 10.24 10.24h144.384c6.144 0 10.24-4.096 10.24-10.24s-4.096-10.24-10.24-10.24H328.704zM565.248 481.28c0-6.144-4.096-10.24-10.24-10.24H328.704c-6.144 0-10.24 4.096-10.24 10.24s4.096 10.24 10.24 10.24h226.304c5.12 0 10.24-4.096 10.24-10.24z" fill="#7E898F" /><path d="M785.408 813.056l-74.752-74.752c-19.456 11.264-40.96 18.432-64.512 18.432-67.584 0-122.88-55.296-122.88-122.88s55.296-122.88 122.88-122.88 122.88 55.296 122.88 122.88c0 29.696-10.24 57.344-28.672 78.848l72.704 72.704c8.192 7.168 7.168 19.456 0 27.648-7.168 8.192-19.456 8.192-27.648 0zM558.08 634.88c0 49.152 39.936 89.088 89.088 89.088s89.088-39.936 89.088-89.088c0-49.152-39.936-89.088-89.088-89.088s-89.088 39.936-89.088 89.088z" fill="#EDF2F4" /><path d="M785.408 813.056c7.168 7.168 20.48 7.168 27.648 0 7.168-7.168 8.192-19.456 0-27.648l-72.704-72.704c18.432-21.504 28.672-49.152 28.672-78.848 0-67.584-55.296-122.88-122.88-122.88s-122.88 55.296-122.88 122.88 55.296 122.88 122.88 122.88c22.528 0 45.056-6.144 64.512-18.432l74.752 74.752z m-138.24-35.84c-78.848 0-143.36-63.488-143.36-143.36s64.512-143.36 143.36-143.36 143.36 63.488 143.36 143.36c0 27.648-8.192 54.272-22.528 76.8l23.552 23.552c27.648 26.624 27.648 26.624 35.84 35.84 15.36 15.36 15.36 40.96 0 56.32s-40.96 15.36-56.32 0l-3.072-3.072-8.192-8.192-25.6-25.6c-12.288-12.288-21.504-20.48-26.624-26.624-19.456 10.24-39.936 14.336-60.416 14.336zM578.56 634.88a68.608 68.608 0 1 0 137.216 0 68.608 68.608 0 0 0-137.216 0z m-20.48 0c0-49.152 39.936-89.088 89.088-89.088s89.088 39.936 89.088 89.088-39.936 89.088-89.088 89.088-89.088-39.936-89.088-89.088z" fill="#7E898F" /></svg>